<svg width="62" height="62" viewBox="0 0 62 62" fill="#FFF" xmlns="http://www.w3.org/2000/svg">
  <circle cx="31" cy="31" r="31" fill="#0ea982"/>
  <g clip-path="url(#clip0_29_264)">
    <path d="M48.5323 27.8707C48.9807 26.5241 49.1362 25.0974 48.9885 23.6859C48.8408 22.2744 48.3933 20.9108 47.6759 19.6862C46.6125 17.834 44.9881 16.3676 43.0372 15.4985C41.0863 14.6294 38.9097 14.4026 36.8214 14.8508C35.8795 13.7893 34.7218 12.9413 33.4256 12.3634C32.1294 11.7856 30.7248 11.4913 29.3057 11.5002C27.1707 11.495 25.0892 12.168 23.3613 13.4221C21.6334 14.6762 20.3485 16.4467 19.6916 18.4781C18.3008 18.7629 16.9868 19.3414 15.8376 20.175C14.6885 21.0087 13.7307 22.0782 13.0283 23.312C11.9564 25.1591 11.4988 27.2988 11.7216 29.4228C11.9444 31.5467 12.8361 33.5449 14.2679 35.1293C13.8196 36.4759 13.6641 37.9026 13.8118 39.3141C13.9594 40.7256 14.4069 42.0892 15.1243 43.3138C16.1878 45.1659 17.8122 46.6322 19.7631 47.5013C21.714 48.3704 23.8906 48.5973 25.9788 48.1492C26.9207 49.2107 28.0785 50.0587 29.3746 50.6366C30.6708 51.2144 32.0754 51.5087 33.4945 51.4998C35.6306 51.5054 37.7132 50.8321 39.4417 49.5772C41.1703 48.3223 42.4555 46.5506 43.1118 44.5179C44.5026 44.2332 45.8166 43.6547 46.9658 42.821C48.1149 41.9874 49.0727 40.9178 49.7751 39.684C50.8457 37.8371 51.3022 35.6979 51.0788 33.5748C50.8555 31.4517 49.9638 29.4544 48.5323 27.8707ZM33.4977 48.8849C31.7442 48.8874 30.0458 48.2733 28.6993 47.1501C28.76 47.117 28.8665 47.0586 28.9359 47.0161L36.9003 42.4156C37.1002 42.3019 37.2662 42.137 37.3812 41.9378C37.4963 41.7386 37.5562 41.5124 37.5548 41.2825V30.0542L40.9212 31.998C40.9388 32.0068 40.954 32.0198 40.9655 32.0359C40.9769 32.052 40.9841 32.0707 40.9866 32.0902V41.3889C40.9841 43.375 40.1945 45.2791 38.7908 46.6841C37.3871 48.0892 35.4837 48.8806 33.4977 48.8849ZM17.3922 42.0064C16.5139 40.4888 16.1974 38.7107 16.498 36.9832C16.5571 37.0187 16.6604 37.0818 16.7345 37.1244L24.6989 41.7248C24.8974 41.8408 25.1232 41.902 25.3531 41.902C25.5829 41.902 25.8087 41.8408 26.0072 41.7248L35.7309 36.1103V39.9979C35.732 40.0177 35.7282 40.0376 35.7198 40.0556C35.7114 40.0736 35.6987 40.0893 35.6828 40.1012L27.6316 44.7497C25.9095 45.7416 23.8642 46.0097 21.9446 45.4954C20.025 44.9811 18.3878 43.7263 17.3922 42.0064ZM15.297 24.6194C16.1715 23.0998 17.5527 21.9364 19.1988 21.3327C19.1988 21.4013 19.1948 21.5228 19.1948 21.6071V30.808C19.1934 31.0378 19.2533 31.2638 19.3682 31.4629C19.4831 31.6619 19.6489 31.8267 19.8486 31.9404L29.5722 37.5542L26.2059 39.4979C26.1893 39.5089 26.1702 39.5155 26.1504 39.5173C26.1306 39.5191 26.1106 39.516 26.0923 39.5082L18.0404 34.8557C16.3213 33.8601 15.0671 32.2235 14.5528 30.3046C14.0386 28.3858 14.3062 26.3413 15.297 24.6194ZM42.9549 31.0556L33.2311 25.4411L36.5975 23.4981C36.6141 23.4872 36.6332 23.4805 36.653 23.4787C36.6728 23.4769 36.6927 23.4801 36.711 23.4879L44.763 28.1364C45.9966 28.849 47.0016 29.8982 47.6605 31.1613C48.3193 32.4244 48.6046 33.849 48.4831 35.2684C48.3616 36.6878 47.8381 38.0432 46.9742 39.1759C46.1102 40.3086 44.9414 41.1717 43.6046 41.6641C43.6046 41.5947 43.6046 41.4733 43.6046 41.3889V32.188C43.6065 31.9586 43.5473 31.7328 43.4331 31.5338C43.3189 31.3348 43.1539 31.1698 42.9549 31.0556ZM46.3054 26.0128C46.2463 25.9765 46.143 25.9142 46.0689 25.8717L38.1044 21.2712C37.9059 21.1554 37.6802 21.0943 37.4503 21.0943C37.2205 21.0943 36.9947 21.1554 36.7962 21.2712L27.0725 26.8858V22.9982C27.0714 22.9783 27.0752 22.9585 27.0836 22.9405C27.092 22.9225 27.1047 22.9068 27.1206 22.8949L35.1718 18.2502C36.4052 17.539 37.8157 17.1938 39.2382 17.2548C40.6607 17.3159 42.0363 17.7808 43.2043 18.5951C44.3722 19.4094 45.2841 20.5394 45.8333 21.8531C46.3825 23.1667 46.5463 24.6095 46.3054 26.0128ZM25.2423 32.9419L21.8751 30.9981C21.8575 30.9893 21.8422 30.9763 21.8308 30.9602C21.8194 30.9441 21.8121 30.9254 21.8097 30.9058V21.6071C21.8106 20.1829 22.2172 18.7885 22.9818 17.587C23.7465 16.3854 24.8376 15.4266 26.1274 14.8226C27.4172 14.2187 28.8523 13.9946 30.2648 14.1767C31.6774 14.3588 33.0088 14.9394 34.1033 15.8507C34.0426 15.8838 33.9369 15.9421 33.8667 15.9847L25.9023 20.5852C25.7024 20.6988 25.5365 20.8636 25.4214 21.0626C25.3064 21.2616 25.2465 21.4877 25.2478 21.7175L25.2423 32.9419ZM27.0709 28.9991L31.4017 26.4978L35.7324 28.9975V33.9985L31.4017 36.4983L27.0709 33.9985V28.9991Z" fill="#ffffff"/>
  </g>
  <defs>
    <clipPath id="clip0_29_264">
      <rect width="41" height="41" fill="#0ea982" transform="translate(11 11)"/>
    </clipPath>
  </defs>
</svg>
